<svg xmlns="http://www.w3.org/2000/svg" viewBox="0 0 320 80" role="img" aria-labelledby="title">
  <title id="title">CortaElGrifo</title>
  <g transform="translate(10,10)">
    <g transform="translate(0,0) scale(2.6)">
      <path fill="#0B2A5B" d="M4 8h7V6H8.5A2.5 2.5 0 0 0 6 3.5V3h5V1H4v2.5A4.5 4.5 0 0 0 8.5 8H4zm16 3h-3V8h-2v3h-1a3 3 0 0 0-3 3v1.5a2.5 2.5 0 1 0 5 0V14h4a2 2 0 0 0 2-2v-.5A1.5 1.5 0 0 0 20 10.5z"/>
    </g>
    <g transform="translate(80,2)">
      <path fill="#0B2A5B" d="M32 0C19 0 12 11.3 12 21.8C12 37.7 32 54 32 54s20-16.3 20-32.2C52 11.3 45 0 32 0z"/>
      <path fill="#F04E23" d="M32 6c-7 0-12 5.5-12 11.5c0 .5 0 1 .1 1.5h23.8c.1-.5.1-1 .1-1.5C44 11.5 39 6 32 6z"/>
      <path fill="#0B72F0" d="M19 21c.3 1.9 1 3.9 2.1 5.9H43c1.1-2 1.8-4 2.1-5.9z"/>
      <path fill="#2FB1FF" d="M23.4 30.5c1.3 2 3 4 5.1 5.9h7c2.1-1.9 3.8-3.9 5.1-5.9z"/>
      <path fill="#0B2A5B" d="M30.5 39.8c.5.6 1 1.1 1.5 1.7c.5-.6 1-1.1 1.5-1.7z" opacity=".25"/>
    </g>
    <text x="150" y="46" fill="#0B2A5B" font-family="'Inter', 'Segoe UI', sans-serif" font-size="32" font-weight="600" letter-spacing=".02em">
      CortaElGrifo
    </text>
  </g>
</svg>
